<?xml version="1.0" encoding="iso-8859-1"?>
<!-- Generator: Adobe Illustrator 17.1.0, SVG Export Plug-In . SVG Version: 6.00 Build 0)  -->
<!DOCTYPE svg PUBLIC "-//W3C//DTD SVG 1.1//EN" "http://www.w3.org/Graphics/SVG/1.1/DTD/svg11.dtd">
<svg version="1.1" id="Capa_1" xmlns="http://www.w3.org/2000/svg" xmlns:xlink="http://www.w3.org/1999/xlink" x="0px" y="0px"
	 viewBox="0 0 430.424 430.424" style="enable-background:new 0 0 430.424 430.424;" xml:space="preserve">
<path id="XMLID_16_" d="M179.954,149.88H72.822c-4.971,0-9-4.029-9-9s4.029-9,9-9h107.132c4.971,0,9,4.029,9,9
	S184.925,149.88,179.954,149.88z M170.448,367.105c0,4.971-4.029,9-9,9h-33.887v45.319c0,3.505-2.035,6.691-5.215,8.166
	c-1.209,0.561-2.5,0.834-3.784,0.834c-2.091,0-4.16-0.728-5.818-2.132L95.69,413.849l-17.051,14.442
	c-2.674,2.265-6.423,2.772-9.602,1.298c-3.18-1.474-5.215-4.66-5.215-8.166v-45.319H21.432c-4.971,0-9-4.029-9-9V27.463
	c0-15.142,10.764-27.461,23.995-27.461H286.03c4.971,0,9,4.029,9,9s-4.029,9-9,9H36.427c-2.83,0-5.995,4.046-5.995,9.461v9.464
	H286.03c4.971,0,9,4.029,9,9v87.604c0,4.971-4.029,9-9,9s-9-4.029-9-9V54.927H30.432v303.177h131.016
	C166.418,358.105,170.448,362.134,170.448,367.105z M109.561,376.105H81.822v25.902l8.051-6.819
	c1.678-1.421,3.748-2.132,5.817-2.132c2.069,0,4.138,0.71,5.816,2.132l8.055,6.821V376.105z M417.993,290.484
	c0,68.206-55.489,123.694-123.694,123.694s-123.694-55.489-123.694-123.694s55.489-123.695,123.694-123.695
	c12.619,0,31.688,0,42.341,15.232c4.517,6.462,12.44,24.063-11.453,47.912c-7.757,7.742-7.769,20.351-0.028,28.108
	c7.748,7.748,20.361,7.764,28.11,0.028c15.864-15.833,28.883-17.414,37.012-15.953c9.75,1.753,17.89,8.751,22.921,19.705
	C417.412,270.985,417.993,281.013,417.993,290.484z M399.993,290.484c0-8.583-0.535-15.464-3.147-21.15
	c-1.77-3.854-4.898-8.629-9.75-9.502c-5.522-0.991-13.022,2.906-21.111,10.978c-14.768,14.74-38.795,14.719-53.561-0.046
	c-14.758-14.79-14.734-38.818,0.047-53.57c5.894-5.882,14.954-16.935,9.417-24.857c-4.889-6.991-14.948-7.546-27.589-7.546
	c-58.28,0-105.694,47.415-105.694,105.695c0,58.28,47.414,105.694,105.694,105.694C352.579,396.178,399.993,348.764,399.993,290.484
	z M326.537,307.03L326.537,307.03C326.537,307.03,326.537,307.029,326.537,307.03L326.537,307.03z M72.822,167.169
	c-4.971,0-9,4.029-9,9s4.029,9,9,9H109.1c4.971,0,9-4.029,9-9s-4.029-9-9-9H72.822z M328.704,15.667
	c-2.836-2.572-3.734-6.658-2.238-10.182c1.496-3.525,5.046-5.716,8.878-5.465c62.825,4.153,69.792,40.796,68.842,72.256
	c0,0,0,0.001,0,0.001c-0.445,14.619-9.971,26.646-22.992,30.539v106.939c0,4.971-4.029,9-9,9s-9-4.029-9-9v-106.85
	c-13.431-3.854-23.288-16.249-23.288-30.901c0-4.136,0.032-7.969,0.063-11.537C340.199,33.262,339.801,25.731,328.704,15.667z
	 M354.185,21.047c4.029,10.581,3.925,22.75,3.784,39.573c-0.03,3.521-0.062,7.302-0.062,11.384c0,7.797,6.344,14.141,14.142,14.141
	c7.686,0,13.899-6.331,14.146-14.413C386.841,50.313,384.538,29.127,354.185,21.047z M257.361,318.439
	c-4.841,4.831-11.271,7.491-18.108,7.491c-0.009,0-0.017,0-0.025,0c-6.847-0.007-13.281-2.679-18.117-7.525
	c-9.984-10.002-9.968-26.264,0.035-36.248c10.003-9.984,26.265-9.968,36.25,0.033C267.378,292.192,267.363,308.454,257.361,318.439z
	 M244.655,294.906c-1.488-1.491-3.445-2.236-5.402-2.236c-1.952,0-3.904,0.742-5.392,2.227c0,0,0,0,0,0
	c-2.978,2.973-2.983,7.814-0.01,10.792c1.44,1.443,3.355,2.239,5.394,2.241c0.002,0,0.005,0,0.008,0c2.036,0,3.95-0.792,5.391-2.23
	C247.622,302.727,247.627,297.884,244.655,294.906z M302.522,327.404c9.984,10.005,9.968,26.266-0.035,36.25
	c-4.995,4.985-11.552,7.478-18.107,7.478c-6.572,0-13.144-2.504-18.142-7.513c-4.837-4.845-7.498-11.285-7.491-18.131
	c0.006-6.846,2.679-13.28,7.525-18.117C276.277,317.385,292.538,317.4,302.522,327.404z M289.782,340.119
	c-2.973-2.978-7.815-2.982-10.793-0.009c-1.443,1.44-2.239,3.356-2.241,5.394s0.791,3.955,2.231,5.398
	c2.973,2.979,7.814,2.984,10.793,0.011C292.75,347.941,292.755,343.098,289.782,340.119z M72.822,114.594H158.1c4.971,0,9-4.029,9-9
	s-4.029-9-9-9H72.822c-4.971,0-9,4.029-9,9S67.851,114.594,72.822,114.594z M239.452,256.063c-4.836-4.845-7.497-11.285-7.49-18.131
	c0.007-6.846,2.679-13.281,7.526-18.118c10.002-9.983,26.264-9.968,36.248,0.034c4.836,4.845,7.498,11.285,7.491,18.131
	c-0.006,6.846-2.678,13.281-7.523,18.118c-4.84,4.831-11.27,7.491-18.107,7.491c-0.009,0-0.018,0-0.026,0
	C250.723,263.581,244.288,260.909,239.452,256.063z M249.962,237.949c-0.001,2.038,0.791,3.956,2.231,5.398
	c1.44,1.443,3.355,2.239,5.395,2.241c0.002,0,0.005,0,0.008,0c2.036,0,3.95-0.792,5.392-2.23c1.442-1.439,2.238-3.355,2.24-5.394
	s-0.791-3.956-2.231-5.399c-1.488-1.491-3.444-2.236-5.401-2.236c-1.952,0-3.904,0.742-5.392,2.227l0,0
	C250.76,233.995,249.964,235.911,249.962,237.949z M362.788,307.064c9.984,10.003,9.968,26.265-0.036,36.249
	c-4.839,4.831-11.269,7.49-18.106,7.49c-0.008,0-0.016,0-0.024,0c-6.847-0.006-13.281-2.679-18.118-7.525
	c-9.983-10.004-9.968-26.265,0.034-36.249c4.839-4.831,11.27-7.491,18.107-7.491c0.008,0,0.016,0,0.024,0
	C351.516,299.545,357.95,302.218,362.788,307.064z M352.277,325.178c0.002-2.038-0.79-3.955-2.23-5.398
	c-1.44-1.443-3.356-2.239-5.396-2.241c-0.002,0-0.005,0-0.007,0c-2.036,0-3.95,0.792-5.391,2.23c0,0,0,0,0,0
	c-2.978,2.973-2.982,7.815-0.009,10.794c1.439,1.442,3.355,2.238,5.393,2.24c0.002,0,0.005,0,0.007,0c2.036,0,3.95-0.792,5.391-2.23
	C351.479,329.132,352.275,327.216,352.277,325.178z"/>
<g>
</g>
<g>
</g>
<g>
</g>
<g>
</g>
<g>
</g>
<g>
</g>
<g>
</g>
<g>
</g>
<g>
</g>
<g>
</g>
<g>
</g>
<g>
</g>
<g>
</g>
<g>
</g>
<g>
</g>
</svg>
