<?xml version="1.0" encoding="iso-8859-1"?>
<!-- Generator: Adobe Illustrator 18.0.0, SVG Export Plug-In . SVG Version: 6.00 Build 0)  -->
<!DOCTYPE svg PUBLIC "-//W3C//DTD SVG 1.1//EN" "http://www.w3.org/Graphics/SVG/1.1/DTD/svg11.dtd">
<svg version="1.1" id="Capa_1" xmlns="http://www.w3.org/2000/svg" xmlns:xlink="http://www.w3.org/1999/xlink" x="0px" y="0px"
	 viewBox="0 0 297.004 297.004" style="enable-background:new 0 0 297.004 297.004;" xml:space="preserve">
<path d="M295.589,127.164c-1.358-2.299-3.576-3.963-6.161-4.628c-8.722-2.24-17.598-4.288-26.486-6.12V96.59
	c0-5.56-4.507-10.066-10.067-10.066h-34.615c-5.56,0-10.067,4.507-10.067,10.066v11.314c-16.491-1.746-33.051-2.771-49.622-3.065
	V88.208c19.809-4.575,34.616-22.356,34.616-43.53C193.186,20.043,173.142,0,148.502,0s-44.684,20.043-44.684,44.678
	c0,5.56,4.507,10.067,10.067,10.067c5.56,0,10.067-4.508,10.067-10.067c0-13.532,11.013-24.542,24.549-24.542
	c13.536,0,24.549,11.01,24.549,24.542c0,13.531-11.013,24.54-24.549,24.54c-5.56,0-10.067,4.507-10.067,10.067v25.554
	c-16.572,0.294-33.132,1.319-49.624,3.065V96.59c0-5.56-4.508-10.066-10.067-10.066H44.13c-5.56,0-10.067,4.507-10.067,10.066
	v19.826c-8.889,1.832-17.765,3.88-26.486,6.12c-2.585,0.665-4.803,2.329-6.162,4.628c-1.357,2.299-1.749,5.043-1.083,7.63
	l8.609,33.515c1.167,4.544,5.258,7.566,9.743,7.564c0.828,0,1.671-0.102,2.511-0.318c4.222-1.083,8.523-2.123,12.868-3.115v114.497
	c0,5.559,4.507,10.067,10.067,10.067h208.744c5.56,0,10.067-4.508,10.067-10.067V172.439c4.345,0.992,8.646,2.032,12.866,3.115
	c0.841,0.216,1.683,0.318,2.512,0.318c4.485,0,8.576-3.019,9.743-7.564l8.61-33.515
	C297.339,132.207,296.947,129.463,295.589,127.164z M204.112,127.726c-4.561,7.067-12.499,11.759-21.52,11.759h-68.184
	c-9.021,0-16.958-4.691-21.52-11.759C129.851,123.946,167.153,123.946,204.112,127.726z M25.963,153.646l-3.601-14.021
	c3.885-0.921,7.788-1.801,11.701-2.638v14.813C31.347,152.398,28.646,153.013,25.963,153.646z M242.807,276.869H54.197V106.657
	h14.479v7.236c0,25.214,20.516,45.726,45.733,45.726h68.184c25.218,0,45.733-20.512,45.733-45.726v-7.236h14.48V276.869z
	 M271.04,153.646c-2.682-0.634-5.383-1.248-8.099-1.845v-14.814c3.913,0.837,7.816,1.717,11.701,2.638L271.04,153.646z"/>
<g>
</g>
<g>
</g>
<g>
</g>
<g>
</g>
<g>
</g>
<g>
</g>
<g>
</g>
<g>
</g>
<g>
</g>
<g>
</g>
<g>
</g>
<g>
</g>
<g>
</g>
<g>
</g>
<g>
</g>
</svg>
