<?xml version="1.0" encoding="iso-8859-1"?>
<!-- Generator: Adobe Illustrator 19.0.0, SVG Export Plug-In . SVG Version: 6.00 Build 0)  -->
<svg version="1.1" id="Layer_1" xmlns="http://www.w3.org/2000/svg" xmlns:xlink="http://www.w3.org/1999/xlink" x="0px" y="0px"
	 viewBox="0 0 512.002 512.002" style="enable-background:new 0 0 512.002 512.002;" xml:space="preserve">
<g>
	<g>
		<path d="M509.583,36.129c-1.823-2.054-4.437-3.229-7.182-3.229H254.228c-2.756,0-5.379,1.184-7.2,3.251
			c-1.823,2.067-2.669,4.818-2.323,7.551l5.967,47.261h-71.026c-5.302,0-9.6,4.298-9.6,9.6v54.499
			c-15.186,4.214-26.368,18.152-26.368,34.66v181.558H84.571c-15.091,0-27.786,10.438-31.258,24.472l-44.344,2.922
			C3.923,399.006,0,403.197,0,408.253v33.875c0,5.057,3.923,9.247,8.969,9.58l44.344,2.921
			c3.471,14.034,16.166,24.474,31.259,24.474h374.7c5.303,0,9.6-4.298,9.6-9.6v-67.907l43.062-357.951
			C512.26,40.92,511.405,38.183,509.583,36.129z M52.369,435.325L19.2,433.141v-15.9l33.169-2.186V435.325z M189.245,110.164h99.94
			v43.585h-99.94V110.164z M162.877,189.721c0-9.248,7.524-16.773,16.773-16.773h119.132c9.248,0,16.772,7.524,16.772,16.773
			v181.558H162.877V189.721z M84.571,459.904c-7.169,0-13.002-5.833-13.002-13.002v-1.321v-40.776v-1.321
			c0-7.169,5.833-13.002,13.002-13.002h260.523v69.422H84.571z M449.67,459.904h-85.376v-49.281h85.376V459.904z M450.756,391.421
			h-86.461V380.88c0-5.302-4.297-9.6-9.6-9.6h-19.941V189.721c0-16.508-11.182-30.447-26.368-34.66v-54.497
			c0-5.302-4.297-9.6-9.6-9.6h-28.763l-4.906-38.865h226.46L450.756,391.421z"/>
	</g>
</g>
<g>
</g>
<g>
</g>
<g>
</g>
<g>
</g>
<g>
</g>
<g>
</g>
<g>
</g>
<g>
</g>
<g>
</g>
<g>
</g>
<g>
</g>
<g>
</g>
<g>
</g>
<g>
</g>
<g>
</g>
</svg>
