<?xml version="1.0" encoding="iso-8859-1"?>
<!-- Generator: Adobe Illustrator 19.0.0, SVG Export Plug-In . SVG Version: 6.00 Build 0)  -->
<svg version="1.1" id="Layer_1" xmlns="http://www.w3.org/2000/svg" xmlns:xlink="http://www.w3.org/1999/xlink" x="0px" y="0px"
	 viewBox="0 0 512.036 512.036" style="enable-background:new 0 0 512.036 512.036;" xml:space="preserve">
<g>
	<g>
		<g>
			<path d="M508.417,340.184l-85.333-128C411.375,194.622,384,202.911,384,224.018v42.667h-21.333v-42.667
				c0-11.782-9.551-21.333-21.333-21.333H320v-85.333c0-11.782-9.551-21.333-21.333-21.333c-11.782,0-21.333,9.551-21.333,21.333
				v85.333h-42.667v-128H256c11.782,0,21.333-9.551,21.333-21.333c0-11.782-9.551-21.333-21.333-21.333h-42.667H64H21.333
				C9.551,32.018,0,41.569,0,53.351c0,11.782,9.551,21.333,21.333,21.333h21.333v128c-11.782,0-21.333,9.551-21.333,21.333v144.303
				C8.243,380.038,0,397.06,0,416.018c0,35.355,28.645,64,64,64c27.872,0,51.562-17.808,60.346-42.667h7.308
				c8.784,24.858,32.474,42.667,60.346,42.667s51.562-17.808,60.346-42.667h7.308c8.784,24.858,32.474,42.667,60.346,42.667
				c35.355,0,64-28.645,64-64c0-18.958-8.243-35.98-21.333-47.697v-58.97H384v42.667c0,11.782,9.551,21.333,21.333,21.333h85.333
				C507.706,373.351,517.869,354.361,508.417,340.184z M85.333,74.685H192v128H85.333V74.685z M64,437.351
				c-11.791,0-21.333-9.542-21.333-21.333c0-7.234,3.6-13.609,9.099-17.466c0.537-0.256,1.072-0.529,1.6-0.835
				c2.919-1.692,5.918-2.676,8.936-2.947c0.562-0.044,1.125-0.086,1.699-0.086c11.791,0,21.333,9.542,21.333,21.333
				S75.791,437.351,64,437.351z M192,437.351c-11.791,0-21.333-9.542-21.333-21.333s9.542-21.333,21.333-21.333
				s21.333,9.542,21.333,21.333S203.791,437.351,192,437.351z M320,437.351c-11.791,0-21.333-9.542-21.333-21.333
				s9.542-21.333,21.333-21.333c0.574,0,1.137,0.041,1.699,0.086c3.018,0.271,6.017,1.255,8.936,2.947
				c0.528,0.306,1.063,0.579,1.6,0.835c5.499,3.857,9.099,10.232,9.099,17.466C341.333,427.809,331.791,437.351,320,437.351z
				 M316.998,352.094c-0.308,0.014-0.614,0.037-0.921,0.055c-0.7,0.042-1.397,0.094-2.091,0.159c-0.335,0.031-0.669,0.064-1.003,0.1
				c-0.715,0.078-1.425,0.169-2.132,0.271c-0.269,0.039-0.54,0.072-0.809,0.113c-0.962,0.15-1.917,0.319-2.864,0.511
				c-0.161,0.033-0.32,0.073-0.481,0.107c-0.789,0.167-1.572,0.347-2.35,0.542c-0.306,0.077-0.609,0.16-0.913,0.241
				c-0.647,0.173-1.291,0.355-1.93,0.548c-0.306,0.092-0.612,0.184-0.916,0.281c-0.708,0.225-1.41,0.464-2.108,0.713
				c-0.203,0.073-0.41,0.139-0.612,0.214c-0.889,0.328-1.768,0.675-2.638,1.04c-0.218,0.092-0.432,0.191-0.649,0.285
				c-0.657,0.285-1.31,0.578-1.955,0.884c-0.288,0.137-0.574,0.277-0.86,0.418c-0.591,0.291-1.175,0.591-1.756,0.899
				c-0.267,0.142-0.535,0.282-0.8,0.427c-0.721,0.396-1.433,0.805-2.137,1.228c-0.102,0.061-0.206,0.118-0.307,0.179
				c-0.8,0.487-1.585,0.994-2.362,1.514c-0.226,0.152-0.447,0.31-0.671,0.464c-0.556,0.383-1.106,0.772-1.648,1.172
				c-0.256,0.188-0.51,0.379-0.763,0.571c-0.531,0.404-1.055,0.816-1.573,1.236c-0.218,0.176-0.437,0.349-0.653,0.528
				c-0.716,0.596-1.422,1.203-2.112,1.829c-0.055,0.05-0.107,0.102-0.161,0.152c-0.634,0.58-1.255,1.174-1.866,1.779
				c-0.21,0.208-0.415,0.421-0.622,0.632c-0.458,0.467-0.91,0.939-1.354,1.42c-0.214,0.232-0.428,0.464-0.639,0.7
				c-0.464,0.518-0.918,1.044-1.366,1.577c-0.158,0.188-0.32,0.372-0.475,0.562c-0.591,0.72-1.167,1.452-1.727,2.197
				c-0.113,0.15-0.219,0.305-0.33,0.456c-0.445,0.604-0.881,1.216-1.305,1.836c-0.174,0.255-0.344,0.513-0.515,0.771
				c-0.361,0.544-0.713,1.094-1.058,1.65c-0.163,0.263-0.327,0.525-0.486,0.791c-0.389,0.648-0.765,1.304-1.131,1.967
				c-0.09,0.163-0.186,0.323-0.275,0.488c-0.446,0.825-0.873,1.661-1.284,2.508c-0.109,0.224-0.21,0.453-0.317,0.679
				c-0.299,0.635-0.589,1.274-0.868,1.92c-0.127,0.294-0.25,0.59-0.373,0.887c-0.254,0.615-0.498,1.235-0.733,1.859
				c-0.106,0.281-0.215,0.561-0.317,0.844c-0.047,0.131-0.1,0.259-0.146,0.39h-7.279c-0.046-0.131-0.099-0.259-0.146-0.39
				c-0.102-0.283-0.211-0.563-0.317-0.844c-0.235-0.624-0.479-1.244-0.733-1.859c-0.123-0.297-0.246-0.593-0.373-0.887
				c-0.278-0.646-0.569-1.285-0.868-1.92c-0.106-0.226-0.208-0.455-0.317-0.679c-0.411-0.846-0.838-1.683-1.284-2.508
				c-0.089-0.164-0.184-0.324-0.275-0.488c-0.366-0.663-0.742-1.319-1.131-1.967c-0.159-0.266-0.323-0.528-0.486-0.791
				c-0.344-0.556-0.697-1.106-1.058-1.65c-0.171-0.258-0.341-0.516-0.515-0.771c-0.424-0.62-0.86-1.232-1.305-1.836
				c-0.111-0.151-0.218-0.306-0.33-0.456c-0.559-0.746-1.136-1.478-1.727-2.197c-0.156-0.19-0.318-0.374-0.475-0.562
				c-0.447-0.533-0.901-1.059-1.366-1.577c-0.211-0.235-0.424-0.468-0.639-0.7c-0.444-0.48-0.895-0.953-1.354-1.42
				c-0.207-0.211-0.412-0.424-0.622-0.632c-0.61-0.605-1.231-1.199-1.866-1.779c-0.055-0.05-0.107-0.102-0.161-0.152
				c-0.689-0.626-1.396-1.233-2.112-1.829c-0.215-0.179-0.435-0.352-0.653-0.528c-0.518-0.42-1.041-0.832-1.573-1.236
				c-0.253-0.192-0.507-0.383-0.763-0.571c-0.543-0.4-1.093-0.789-1.648-1.172c-0.224-0.154-0.445-0.312-0.671-0.464
				c-0.776-0.52-1.562-1.027-2.362-1.514c-0.101-0.062-0.206-0.118-0.307-0.179c-0.703-0.423-1.416-0.832-2.137-1.228
				c-0.265-0.146-0.533-0.285-0.8-0.427c-0.58-0.308-1.165-0.608-1.756-0.899c-0.286-0.141-0.572-0.281-0.86-0.418
				c-0.646-0.306-1.298-0.599-1.955-0.884c-0.217-0.094-0.431-0.193-0.649-0.285c-0.87-0.365-1.749-0.712-2.638-1.04
				c-0.203-0.075-0.409-0.141-0.612-0.214c-0.697-0.249-1.399-0.488-2.108-0.713c-0.304-0.097-0.61-0.188-0.916-0.281
				c-0.639-0.193-1.282-0.375-1.93-0.548c-0.304-0.081-0.607-0.164-0.913-0.241c-0.778-0.195-1.561-0.375-2.35-0.542
				c-0.161-0.034-0.32-0.074-0.481-0.107c-0.947-0.192-1.902-0.361-2.864-0.511c-0.268-0.042-0.539-0.075-0.809-0.113
				c-0.707-0.101-1.417-0.193-2.132-0.271c-0.333-0.036-0.668-0.069-1.003-0.1c-0.694-0.065-1.391-0.117-2.091-0.159
				c-0.307-0.019-0.613-0.041-0.921-0.055c-0.996-0.046-1.995-0.076-3.002-0.076s-2.007,0.03-3.002,0.076
				c-0.308,0.014-0.614,0.037-0.921,0.055c-0.7,0.042-1.397,0.094-2.091,0.159c-0.335,0.031-0.669,0.064-1.003,0.1
				c-0.715,0.078-1.425,0.169-2.132,0.271c-0.269,0.039-0.54,0.072-0.809,0.113c-0.962,0.15-1.917,0.319-2.864,0.511
				c-0.161,0.033-0.32,0.073-0.481,0.107c-0.789,0.167-1.572,0.347-2.35,0.542c-0.306,0.077-0.609,0.16-0.913,0.241
				c-0.647,0.173-1.291,0.355-1.93,0.548c-0.306,0.092-0.612,0.184-0.916,0.281c-0.708,0.225-1.41,0.464-2.108,0.713
				c-0.203,0.073-0.41,0.139-0.612,0.214c-0.889,0.328-1.768,0.675-2.638,1.04c-0.218,0.092-0.432,0.191-0.649,0.285
				c-0.657,0.285-1.31,0.578-1.955,0.884c-0.288,0.137-0.574,0.277-0.86,0.418c-0.591,0.291-1.175,0.591-1.756,0.899
				c-0.267,0.142-0.535,0.282-0.8,0.427c-0.721,0.396-1.433,0.805-2.137,1.228c-0.102,0.061-0.206,0.118-0.307,0.179
				c-0.8,0.487-1.585,0.994-2.362,1.514c-0.226,0.152-0.447,0.31-0.671,0.464c-0.556,0.383-1.106,0.772-1.648,1.172
				c-0.256,0.188-0.51,0.379-0.763,0.571c-0.531,0.404-1.055,0.816-1.573,1.236c-0.218,0.176-0.437,0.349-0.653,0.528
				c-0.716,0.596-1.422,1.203-2.112,1.829c-0.055,0.05-0.107,0.102-0.161,0.152c-0.634,0.58-1.255,1.174-1.866,1.779
				c-0.21,0.208-0.415,0.421-0.622,0.632c-0.458,0.467-0.91,0.939-1.354,1.42c-0.214,0.232-0.428,0.464-0.639,0.7
				c-0.464,0.518-0.918,1.044-1.366,1.577c-0.158,0.188-0.32,0.372-0.475,0.562c-0.591,0.72-1.167,1.452-1.727,2.197
				c-0.113,0.15-0.219,0.305-0.33,0.456c-0.445,0.604-0.881,1.216-1.305,1.836c-0.174,0.255-0.344,0.513-0.515,0.771
				c-0.361,0.544-0.713,1.094-1.058,1.65c-0.163,0.263-0.327,0.525-0.486,0.791c-0.389,0.648-0.765,1.304-1.131,1.967
				c-0.09,0.163-0.186,0.323-0.275,0.488c-0.446,0.825-0.873,1.661-1.284,2.508c-0.109,0.224-0.21,0.453-0.317,0.679
				c-0.299,0.635-0.589,1.274-0.868,1.92c-0.127,0.294-0.25,0.59-0.373,0.887c-0.254,0.615-0.498,1.235-0.733,1.859
				c-0.106,0.281-0.215,0.561-0.317,0.844c-0.047,0.131-0.1,0.259-0.146,0.39h-7.279c-0.046-0.131-0.099-0.259-0.146-0.39
				c-0.102-0.283-0.211-0.563-0.317-0.844c-0.235-0.624-0.479-1.244-0.733-1.859c-0.123-0.297-0.246-0.593-0.373-0.887
				c-0.278-0.646-0.569-1.285-0.868-1.92c-0.106-0.226-0.208-0.455-0.317-0.679c-0.411-0.846-0.838-1.683-1.284-2.508
				c-0.089-0.164-0.184-0.324-0.275-0.488c-0.366-0.663-0.742-1.319-1.131-1.967c-0.159-0.266-0.323-0.528-0.486-0.791
				c-0.344-0.556-0.697-1.106-1.058-1.65c-0.171-0.258-0.341-0.516-0.515-0.771c-0.424-0.62-0.86-1.232-1.305-1.836
				c-0.111-0.151-0.218-0.306-0.33-0.456c-0.559-0.746-1.136-1.478-1.727-2.197c-0.156-0.19-0.318-0.374-0.475-0.562
				c-0.447-0.533-0.901-1.059-1.366-1.577c-0.211-0.235-0.424-0.468-0.639-0.7c-0.444-0.48-0.895-0.953-1.354-1.42
				c-0.207-0.211-0.412-0.424-0.622-0.632c-0.61-0.605-1.231-1.199-1.866-1.779c-0.055-0.05-0.107-0.102-0.161-0.152
				c-0.689-0.626-1.396-1.233-2.112-1.829c-0.215-0.179-0.435-0.352-0.653-0.528c-0.518-0.42-1.041-0.832-1.573-1.236
				c-0.253-0.192-0.507-0.383-0.763-0.571c-0.543-0.4-1.093-0.789-1.648-1.172c-0.224-0.154-0.445-0.312-0.671-0.464
				c-0.776-0.52-1.562-1.027-2.362-1.514c-0.101-0.062-0.206-0.118-0.307-0.179c-0.703-0.423-1.416-0.832-2.137-1.228
				c-0.265-0.146-0.533-0.285-0.8-0.427c-0.58-0.308-1.165-0.608-1.756-0.899c-0.286-0.141-0.572-0.281-0.86-0.418
				c-0.646-0.306-1.298-0.599-1.955-0.884c-0.217-0.094-0.431-0.193-0.649-0.285c-0.87-0.365-1.749-0.712-2.638-1.04
				c-0.203-0.075-0.409-0.141-0.612-0.214c-0.697-0.249-1.399-0.488-2.108-0.713c-0.304-0.097-0.61-0.188-0.916-0.281
				c-0.639-0.193-1.282-0.375-1.93-0.548c-0.304-0.081-0.607-0.164-0.913-0.241c-0.778-0.195-1.561-0.375-2.35-0.542
				c-0.161-0.034-0.32-0.074-0.481-0.107c-0.947-0.192-1.902-0.361-2.864-0.511c-0.268-0.042-0.539-0.075-0.809-0.113
				c-0.707-0.101-1.417-0.193-2.132-0.271c-0.333-0.036-0.668-0.069-1.003-0.1c-0.694-0.065-1.391-0.117-2.091-0.159
				c-0.307-0.019-0.613-0.041-0.921-0.055c-0.996-0.046-1.995-0.076-3.002-0.076V245.351h149.333H320v106.667
				C318.993,352.018,317.993,352.048,316.998,352.094z M426.667,330.685v-36.207l24.138,36.207H426.667z"/>
			<path d="M256,288.018H128c-11.782,0-21.333,9.551-21.333,21.333c0,11.782,9.551,21.333,21.333,21.333h128
				c11.782,0,21.333-9.551,21.333-21.333C277.333,297.569,267.782,288.018,256,288.018z"/>
		</g>
	</g>
</g>
<g>
</g>
<g>
</g>
<g>
</g>
<g>
</g>
<g>
</g>
<g>
</g>
<g>
</g>
<g>
</g>
<g>
</g>
<g>
</g>
<g>
</g>
<g>
</g>
<g>
</g>
<g>
</g>
<g>
</g>
</svg>
